<?xml version="1.0" encoding="UTF-8" standalone="no"?>
<!-- Created with Inkscape (http://www.inkscape.org/) -->

<svg
   xmlns:dc="http://purl.org/dc/elements/1.1/"
   xmlns:cc="http://creativecommons.org/ns#"
   xmlns:rdf="http://www.w3.org/1999/02/22-rdf-syntax-ns#"
   xmlns:svg="http://www.w3.org/2000/svg"
   xmlns="http://www.w3.org/2000/svg"
   xmlns:sodipodi="http://sodipodi.sourceforge.net/DTD/sodipodi-0.dtd"
   xmlns:inkscape="http://www.inkscape.org/namespaces/inkscape"
   version="1.1"
   id="svg10"
   width="76"
   height="96"
   viewBox="0 0 76 96"
   sodipodi:docname="Blod.svg"
   inkscape:version="0.92.3 (2405546, 2018-03-11)">
  <metadata
     id="metadata16">
    <rdf:RDF>
      <cc:Work
         rdf:about="">
        <dc:format>image/svg+xml</dc:format>
        <dc:type
           rdf:resource="http://purl.org/dc/dcmitype/StillImage" />
        <dc:title></dc:title>
      </cc:Work>
    </rdf:RDF>
  </metadata>
  <defs
     id="defs14" />
  <sodipodi:namedview
     pagecolor="#ffffff"
     bordercolor="#666666"
     borderopacity="1"
     objecttolerance="10"
     gridtolerance="10"
     guidetolerance="10"
     inkscape:pageopacity="0"
     inkscape:pageshadow="2"
     inkscape:window-width="1360"
     inkscape:window-height="705"
     id="namedview12"
     showgrid="false"
     inkscape:zoom="4.1550388"
     inkscape:cx="43.466419"
     inkscape:cy="46.48321"
     inkscape:window-x="-8"
     inkscape:window-y="-8"
     inkscape:window-maximized="1"
     inkscape:current-layer="svg10"
     inkscape:pagecheckerboard="true"
     fit-margin-top="0"
     fit-margin-left="0"
     fit-margin-right="0"
     fit-margin-bottom="0" />
  <path
     style="fill:#000000"
     d="M 11.48033,92.750001 C 8.788011,90.243041 7.762542,88.268501 6.995016,84.113507 5.696509,77.084072 5.737579,66.68836 7.108059,55.5 9.174765,38.62778 10.589369,37.698867 35.000003,37.184491 c 13.68382,-0.288342 17.86348,-0.693147 19.16681,-1.856328 1.29828,-1.158664 2.12741,-1.241065 3.75,-0.372683 1.85799,0.994367 2.08319,2.026137 2.08319,9.54452 0,7.310675 -0.25676,8.567044 -1.93426,9.464816 -3.39513,1.817018 -4.11417,1.224917 -3.83389,-3.157073 0.39908,-6.239342 -1.55807,-6.945295 -18.27837,-6.593092 -10.92184,0.230062 -14.06762,0.627114 -16.23607,2.049276 -3.915832,2.568171 -5.702546,5.81493 -6.388838,11.60959 L 12.721419,63 h 13.067864 c 13.84935,0 16.21072,-0.733615 16.21072,-5.036245 0,-1.719288 2.65191,-3.963425 4.68426,-3.963977 0.44865,-1.21e-4 0.81574,4.949565 0.81574,10.999303 0,11.375938 -0.58294,12.775124 -3.92857,9.42949 -0.86429,-0.864285 -1.57143,-2.349285 -1.57143,-3.3 C 42.000003,67.536366 39.967993,67 26.359013,67 c -7.282536,0 -13.445861,0.3375 -13.696274,0.75 -0.818792,1.34878 1.196896,11.304437 3.037927,15.004587 3.154303,6.339594 6.179107,7.766164 16.120177,7.602694 14.4413,-0.23747 28.75135,-1.75137 30.52893,-3.22972 1.40336,-1.16714 1.65257,-3.710254 1.66585,-17.000006 0.0102,-10.166482 0.52189,-17.724264 1.46438,-21.627555 1.88824,-7.820102 1.8953,-12.943635 0.02,-14.5 -0.825,-0.684689 -1.5,-2.764789 -1.5,-4.622445 0,-3.808682 0.0968,-3.745057 -3.57437,-2.349281 -2.16977,0.824947 -3.49213,0.617769 -6.6875,-1.04775 l -3.98294,-2.076024 -1.50829,2.153383 c -3.44497,4.918389 -13.9486,6.5378 -18.61204,2.869537 l -2.63486,-2.07258 -2.63486,2.07258 C 21.287563,31.348246 15.786126,31.652151 14,29.5 13.315311,28.675 11.942872,28 10.950135,28 7.53615,28 5,23.263771 5,16.888194 5,11.760117 4.694454,10.845904 2.5,9.408043 0.990029,8.418672 0,6.825496 0,5.38499 0,3.358641 0.488716,3.001655 3.25,3.011006 c 1.7875,0.0061 4.848961,0.275564 6.803247,0.598913 l 3.553247,0.587909 -0.425573,8.901229 C 12.6874,23.421467 13.448952,25 18.922445,25 c 5.007328,0 6.077558,-1.431984 6.077558,-8.131906 0,-5.227409 -0.26405,-5.919923 -3,-7.868094 C 20.350003,7.825096 19,5.994454 19,4.931906 19,3.194423 19.754783,3 26.500003,3 c 7.07338,0 7.5,0.125849 7.5,2.212435 0,1.21684 -1.17267,3.147488 -2.60593,4.29033 -2.29592,1.830701 -2.59757,2.777227 -2.53571,7.956477 0.0791,6.620594 0.82831,7.502728 6.39164,7.525445 4.8671,0.01987 7.69777,-2.748603 7.90844,-7.734687 0.24271,-5.744451 -0.0757,-7.501144 -1.68152,-9.275494 -0.8123,-0.897593 -1.47692,-2.384054 -1.47692,-3.303247 0,-1.413122 1.15842,-1.671259 7.5,-1.671259 8.33072,0 9.06498,0.740728 5.37912,5.426543 -4.03766,5.133047 -0.59152,13.58841 5.52586,13.558144 5.13094,-0.02538 6.06168,-1.234576 6.06168,-7.875089 0,-4.658226 -0.46177,-6.49635 -2.08432,-8.296775 C 57.698043,0.614985 58.242803,0 67.531383,0 c 7.697396,0 8.468616,0.175631 8.468616,1.928571 0,1.060715 -0.67227,2.600844 -1.49394,3.422509 -2.94328,2.943278 -3.800746,10.846102 -1.96922,18.149136 1.32664,5.289861 1.53778,9.153768 1.0288,18.827785 -0.75954,14.436281 -0.76137,15.162974 -0.0839,33.171999 l 0.52664,14.000001 -4.522676,3.25 -4.52269,3.25 h -24.9962 -24.996182 z m 22.769673,-9.412284 c -1.59128,-0.6421 -1.62324,-4.56448 -0.05,-6.137717 3.12767,-3.127669 7.34509,0.230584 5.71406,4.549997 -0.80437,2.13017 -2.8787,2.71164 -5.66406,1.58772 z m -11.58334,-1.00439 c -1.41277,-1.41278 -0.58133,-5.308626 1.354,-6.344387 2.28065,-1.220567 3.51525,-0.724613 4.97198,1.997308 1.64672,3.076929 -3.83156,6.841499 -6.32598,4.347079 z m 3.08334,-24.413426 c -1.03598,-0.603402 -1.75,-2.213639 -1.75,-3.946538 0,-5.68731 8.01347,-7.814225 9.92935,-2.635423 1.04197,2.816516 -0.60477,6.340022 -3.30125,7.063651 -2.73321,0.733487 -2.80372,0.726525 -4.8781,-0.48169 z"
     id="path20"
     inkscape:connector-curvature="0" />
</svg>
