<?xml version="1.0" encoding="UTF-8" standalone="no"?>
<!-- Created with Inkscape (http://www.inkscape.org/) -->

<svg
   xmlns:dc="http://purl.org/dc/elements/1.1/"
   xmlns:cc="http://creativecommons.org/ns#"
   xmlns:rdf="http://www.w3.org/1999/02/22-rdf-syntax-ns#"
   xmlns:svg="http://www.w3.org/2000/svg"
   xmlns="http://www.w3.org/2000/svg"
   xmlns:sodipodi="http://sodipodi.sourceforge.net/DTD/sodipodi-0.dtd"
   xmlns:inkscape="http://www.inkscape.org/namespaces/inkscape"
   version="1.1"
   id="svg10"
   width="228"
   height="218"
   viewBox="0 0 228 218"
   sodipodi:docname="Ise.svg"
   inkscape:version="0.92.3 (2405546, 2018-03-11)">
  <metadata
     id="metadata16">
    <rdf:RDF>
      <cc:Work
         rdf:about="">
        <dc:format>image/svg+xml</dc:format>
        <dc:type
           rdf:resource="http://purl.org/dc/dcmitype/StillImage" />
        <dc:title></dc:title>
      </cc:Work>
    </rdf:RDF>
  </metadata>
  <defs
     id="defs14" />
  <sodipodi:namedview
     pagecolor="#ffffff"
     bordercolor="#666666"
     borderopacity="1"
     objecttolerance="10"
     gridtolerance="10"
     guidetolerance="10"
     inkscape:pageopacity="0"
     inkscape:pageshadow="2"
     inkscape:window-width="1360"
     inkscape:window-height="705"
     id="namedview12"
     showgrid="false"
     inkscape:zoom="2.8284271"
     inkscape:cx="114"
     inkscape:cy="137.28427"
     inkscape:window-x="-8"
     inkscape:window-y="-8"
     inkscape:window-maximized="1"
     inkscape:current-layer="svg10"
     inkscape:pagecheckerboard="true" />
  <path
     style="fill:#000000"
     d="m 98.669292,132.55352 c -5.49152,-1.5756 -9.08351,-4.73069 -11.6425,-10.22641 -3.09788,-6.65304 -3.265,-17.64284 -0.40694,-26.760404 1.09291,-3.486502 1.99291,-9.14656 2,-12.577908 l 0.0129,-6.238813 7.09255,-6.749855 c 3.9009,-3.71242 7.530628,-7.568422 8.066068,-8.568894 0.8755,-1.635903 0.63696,-1.7559 -2.36942,-1.191899 -2.528228,0.474298 -3.984108,0.122796 -5.973798,-1.442293 -1.44697,-1.138188 -3.29562,-2.069432 -4.10812,-2.069432 -2.60793,0 -4.70728,-4.61579 -4.70728,-10.349807 0,-4.678035 -0.3423,-5.644459 -2.5,-7.058236 -1.375,-0.900935 -2.49976,-2.415189 -2.49948,-3.36501 4.4e-4,-1.448167 0.92866,-1.709494 5.75,-1.618832 3.16222,0.05946 6.19948,0.171899 6.74948,0.249856 0.61091,0.08659 0.85988,3.520283 0.63988,8.824773 -0.39667,9.56394 0.50983,11.317256 5.851248,11.317256 3.86468,0 5.00887,-1.789843 5.00887,-7.835329 0,-4.513172 -0.42415,-5.828418 -2.5,-7.752251 -4.429918,-4.105513 -3.390068,-5.550253 3.75,-5.210137 6.00207,0.285906 6.23962,0.396894 5.98819,2.797717 -0.144,1.375 -0.50566,5.875 -0.80369,10 -0.76524,10.591327 -0.7767,10.624756 -6.71621,19.590067 -7.140128,10.777588 -11.797588,24.56344 -12.469768,36.909931 -0.58308,10.70986 0.9134,15.37811 5.94131,18.53377 2.562448,1.60828 4.501058,1.98952 8.582298,1.68779 6.72629,-0.49728 10.32715,-3.72833 12.75409,-11.4442 2.11583,-6.72677 1.64823,-24.347406 -1.10341,-41.579812 l -1.72492,-10.802454 2.24128,-4.487726 c 1.78112,-3.566348 2.13013,-5.557357 1.69988,-9.697546 -1.29499,-12.461449 -1.6581,-11.172642 3.24682,-11.523956 6.0773,-0.435285 6.89154,0.859134 3.19138,5.073387 -2.47119,2.814527 -3.07724,4.400205 -3.07724,8.051335 0,5.313327 1.85405,7.689414 6,7.689414 5.24319,0 6.31846,-2.280058 5.75292,-12.198799 l -0.50182,-8.801201 h 6.87445 c 5.36148,0 6.87445,0.321452 6.87445,1.460573 0,0.803316 -0.69062,2.040816 -1.5347,2.75 -4.30293,3.615234 -4.4653,3.993624 -4.4653,10.40631 0,5.468935 -0.3662,6.840226 -2.35878,8.832807 -1.87429,1.874286 -2.4958,3.867603 -3.02588,9.704545 -0.3669,4.040171 -0.61906,7.795765 -0.56035,8.345765 0.0587,0.55 0.32971,12.335917 0.60223,26.190928 0.39574,20.11959 0.7821,25.42878 1.91914,26.37244 0.783,0.64984 1.42364,2.25142 1.42364,3.55907 0,2.25956 -0.3226,2.37756 -6.5,2.37756 -5.75309,0 -6.5,-0.22161 -6.5,-1.92857 0,-1.06072 0.77397,-2.70254 1.71993,-3.6485 1.54911,-1.54912 1.72807,-4.80869 1.8019,-32.821427 0.0464,-17.61321 -0.31891,-31.643609 -0.84238,-32.351501 -1.41173,-1.9091 -5.4806,-1.490068 -6.64427,0.684259 -1.4822,2.769531 -1.27493,12.207112 0.48462,22.065741 2.1077,11.809274 2.098,27.623908 -0.0209,34.003208 -3.76777,11.34371 -14.12505,16.36246 -26.462398,12.8227 z m 4.598318,-18.89849 c -2.8348,-2.22986 -3.554558,-6.60772 -1.43486,-8.72742 0.66,-0.66 2.84026,-1.2 4.84501,-1.2 4.06149,0 6.955,2.39475 6.955,5.75616 0,2.13986 -4.27236,6.24384 -6.50001,6.24384 -0.67666,0 -2.41597,-0.93266 -3.86514,-2.07258 z m 1.11514,-19.007517 c -2.11934,-1.234403 -2.29627,-5.221644 -0.30504,-6.87422 0.79472,-0.659565 2.48222,-1.052165 3.75,-0.872445 3.02219,0.428428 3.84529,5.592944 1.1997,7.52745 -2.1008,1.536144 -2.36243,1.548492 -4.64466,0.219215 z"
     id="path22"
     inkscape:connector-curvature="0"
     sodipodi:nodetypes="cssscscsssssscsssssssssscssscssssssscsscscccscsssccccsccccsssscsccss" />
</svg>
