<?xml version="1.0" encoding="UTF-8" standalone="no"?>
<!-- Created with Inkscape (http://www.inkscape.org/) -->

<svg
   xmlns:dc="http://purl.org/dc/elements/1.1/"
   xmlns:cc="http://creativecommons.org/ns#"
   xmlns:rdf="http://www.w3.org/1999/02/22-rdf-syntax-ns#"
   xmlns:svg="http://www.w3.org/2000/svg"
   xmlns="http://www.w3.org/2000/svg"
   xmlns:sodipodi="http://sodipodi.sourceforge.net/DTD/sodipodi-0.dtd"
   xmlns:inkscape="http://www.inkscape.org/namespaces/inkscape"
   version="1.1"
   id="svg24"
   width="82.962166"
   height="103.81897"
   viewBox="0 0 82.962166 103.81897"
   sodipodi:docname="Stein.svg"
   inkscape:version="0.92.3 (2405546, 2018-03-11)">
  <metadata
     id="metadata30">
    <rdf:RDF>
      <cc:Work
         rdf:about="">
        <dc:format>image/svg+xml</dc:format>
        <dc:type
           rdf:resource="http://purl.org/dc/dcmitype/StillImage" />
        <dc:title></dc:title>
      </cc:Work>
    </rdf:RDF>
  </metadata>
  <defs
     id="defs28" />
  <sodipodi:namedview
     pagecolor="#ffffff"
     bordercolor="#666666"
     borderopacity="1"
     objecttolerance="10"
     gridtolerance="10"
     guidetolerance="10"
     inkscape:pageopacity="0"
     inkscape:pageshadow="2"
     inkscape:window-width="1360"
     inkscape:window-height="705"
     id="namedview26"
     showgrid="false"
     inkscape:zoom="2.3838384"
     inkscape:cx="50.642259"
     inkscape:cy="61.030323"
     inkscape:window-x="-8"
     inkscape:window-y="-8"
     inkscape:window-maximized="1"
     inkscape:current-layer="svg24"
     inkscape:pagecheckerboard="true"
     fit-margin-top="0"
     fit-margin-left="0"
     fit-margin-right="0"
     fit-margin-bottom="0" />
  <path
     style="fill:#000000"
     d="m 14.922204,102.11202 c -4.534415,-3.671747 0.966732,-10.579807 5.944747,-7.465107 2.58707,1.6187 2.548355,5.865597 -0.07019,7.699697 -2.863401,2.0056 -3.120724,1.99533 -5.874557,-0.23459 z M 52.902923,86.239993 c -5.711749,-4.80612 -7.474958,-12.68905 -4.454924,-19.91701 2.380334,-5.69693 7.347234,-11.279238 10.841414,-12.184669 4.3272,-1.121291 4.25373,-4.165815 -0.15072,-6.245498 -1.82792,-0.863101 -3.73353,-2.217328 -4.23469,-3.009394 -0.50116,-0.792065 -0.91809,-6.000865 -0.92652,-11.575109 -0.0146,-9.699314 -0.12278,-10.205406 -2.51531,-11.773053 -4.540469,-2.97503 -3.220024,-4.591953 3.75,-4.591988 l 6.25,-3.1e-5 -0.35166,11.875819 c -0.42109,14.220566 0.25031,16.124243 5.686836,16.124243 5.55405,0 6.16482,-1.159811 6.16482,-11.706613 0,-8.680729 -0.16813,-9.4528 -2.5,-11.480336 -4.36674,-3.796833 -3.31105,-4.813051 5,-4.813051 6.76964,0 7.5,0.189924 7.5,1.95031 0,1.07267 -0.78307,2.38854 -1.74016,2.924154 -1.45116,0.812108 -1.83888,3.020922 -2.33455,13.29969 -0.32692,6.779215 -0.93966,13.107278 -1.36166,14.062362 -0.42199,0.955084 -5.48993,5.178223 -11.26209,9.384754 -12.988916,9.46584 -16.178642,14.32349 -13.680356,20.83393 0.80936,2.10914 5.57632,4.5448 8.8949,4.5448 5.323106,0 10.422086,-4.44873 10.461676,-9.12756 0.0442,-5.2177 -6.19647,-6.77972 -6.78602,-1.69852 -0.35159,3.03033 -2.787946,4.40609 -4.818486,2.72089 -1.80555,-1.49848 -1.73875,-3.92797 0.18345,-6.6723 1.25635,-1.79369 2.52317,-2.22251 6.565746,-2.22251 6.51199,0 8.22527,1.02111 10.86599,6.47611 l 2.18326,4.51001 -2.17523,3.51959 c -2.46662,3.99107 -5.13625,5.76162 -7.38579,4.89839 -0.84382,-0.3238 -2.97055,0.12781 -4.72608,1.00358 -4.805666,2.39739 -9.225196,2.01805 -12.943846,-1.11099 z m -45.0541,-2.51064 c -1.54903,-0.94267 -3.95722,-3.96521 -5.351533,-6.71675 -4.161809,-8.21294 -3.084137,-17.062817 2.951207,-24.235415 3.086916,-3.668591 3.119854,-4.522447 0.263677,-6.835239 -1.96341,-1.589873 -2.25,-2.756649 -2.25,-9.160293 0,-6.204275 0.424879,-8.061121 2.749293,-12.015217 4.058515,-6.904 7.306294,-9.123666 12.500707,-8.543497 3.264806,0.364649 4.25,0.138449 4.25,-0.9758 0,-0.802084 0.722033,-1.305954 1.615198,-1.127163 2.205095,0.441407 5.719697,11.714873 4.216781,13.525777 -1.78581,2.151769 -3.553504,1.484198 -5.831979,-2.202453 -2.535977,-4.103296 -5.877399,-4.622601 -9.087649,-1.412351 -5.699372,5.699372 -6.563123,17.774745 -1.512647,21.147038 2.342687,1.564254 8.093599,0.806311 9.368223,-1.234687 2.199028,-3.521204 3.353012,-2.285199 3.034333,3.25 l -0.30226,5.25 -6,0.262157 c -5.182196,0.226425 -6.365178,0.660754 -8.679212,3.186552 -7.547868,8.238591 -2.435389,24.109271 7.870372,24.432011 l 3.80884,0.11928 0.299904,-5.75 0.299904,-5.75 h -4.623228 c -3.863198,0 -4.568514,-0.28769 -4.290404,-1.75 0.272295,-1.43173 1.732142,-1.84093 8.027065,-2.25 4.294351,-0.27906 8.260994,-1.0684 8.97685,-1.78635 0.95155,-0.95432 1.198417,-4.787706 0.956429,-14.851519 l -0.32618,-13.565168 2.776921,-2.898482 c 2.797896,-2.920374 4.832258,-3.630555 5.820322,-2.031834 0.29459,0.476656 -1.087187,4.029599 -3.070615,7.89543 l -3.606234,7.028782 1.629633,4.782709 c 0.896298,2.63049 1.629633,5.766861 1.629633,6.969712 0,1.202852 0.94922,3.393741 2.109378,4.86864 3.979064,5.05856 0.40422,17.8736 -4.46476,16.0052 -1.854348,-0.71158 -2.137797,-1.99428 -0.644618,-2.91712 1.318801,-0.81506 1.286773,-5.20473 -0.04398,-6.02718 -1.625376,-1.00453 -5.956024,2.34006 -5.956024,4.59989 0,1.11464 0.716703,3.41256 1.592673,5.1065 1.499023,2.89879 1.475826,3.19674 -0.394518,5.06708 -2.740078,2.74008 -16.111951,3.09543 -20.311506,0.53976 z M 64.462169,9.7483584 c -2.789666,-1.581921 -3.548076,-2.980789 -2.876196,-5.305055 1.28726,-4.45304301 6.750196,-5.954187 9.721206,-2.671259 2.30458,2.546534 2.06425,5.771196 -0.56752,7.614555 -2.61376,1.8307506 -3.58796,1.8868916 -6.27749,0.361759 z"
     id="path36"
     inkscape:connector-curvature="0"
     sodipodi:nodetypes="scssssssscsscsssssssccscsccccsscsccscsssssssssssssscssscccssssscssscssssccsscccscscs" />
</svg>
