<?xml version="1.0" encoding="UTF-8" standalone="no"?>
<!-- Created with Inkscape (http://www.inkscape.org/) -->

<svg
   xmlns:dc="http://purl.org/dc/elements/1.1/"
   xmlns:cc="http://creativecommons.org/ns#"
   xmlns:rdf="http://www.w3.org/1999/02/22-rdf-syntax-ns#"
   xmlns:svg="http://www.w3.org/2000/svg"
   xmlns="http://www.w3.org/2000/svg"
   xmlns:sodipodi="http://sodipodi.sourceforge.net/DTD/sodipodi-0.dtd"
   xmlns:inkscape="http://www.inkscape.org/namespaces/inkscape"
   version="1.1"
   id="svg38"
   width="60.858734"
   height="95.032349"
   viewBox="0 0 60.858734 95.032349"
   sodipodi:docname="Stig.svg"
   inkscape:version="0.92.3 (2405546, 2018-03-11)">
  <metadata
     id="metadata44">
    <rdf:RDF>
      <cc:Work
         rdf:about="">
        <dc:format>image/svg+xml</dc:format>
        <dc:type
           rdf:resource="http://purl.org/dc/dcmitype/StillImage" />
        <dc:title></dc:title>
      </cc:Work>
    </rdf:RDF>
  </metadata>
  <defs
     id="defs42" />
  <sodipodi:namedview
     pagecolor="#ffffff"
     bordercolor="#666666"
     borderopacity="1"
     objecttolerance="10"
     gridtolerance="10"
     guidetolerance="10"
     inkscape:pageopacity="0"
     inkscape:pageshadow="2"
     inkscape:window-width="1360"
     inkscape:window-height="705"
     id="namedview40"
     showgrid="false"
     inkscape:zoom="2.1651376"
     inkscape:cx="26.918926"
     inkscape:cy="69.472339"
     inkscape:window-x="-8"
     inkscape:window-y="-8"
     inkscape:window-maximized="1"
     inkscape:current-layer="svg38"
     inkscape:pagecheckerboard="true"
     fit-margin-top="0"
     fit-margin-left="0"
     fit-margin-right="0"
     fit-margin-bottom="0" />
  <path
     style="fill:#000000"
     d="M 16.687568,93.604099 C 8.7621778,90.695289 0.04910784,78.953539 2.0783895e-4,71.116199 -0.03189216,65.972919 3.6599378,53.513469 7.1640478,46.939084 13.269288,35.484489 20.180798,29.448589 36.609386,21.224152 c 5.48489,-2.745832 10.77726,-5.881643 11.76083,-6.968469 2.46943,-2.728696 1.22998,-5.961562 -2.95621,-7.710664 -4.61612,-1.928735 -6.70236,-1.773445 -9.8931,0.736395 -2.77342,2.181571 -2.92165,3.578041 -1.01952,9.604894 0.68442,2.168557 0.48461,2.25 -5.52005,2.25 h -6.230178 l 0.61171,-4.25 c 0.76342,-5.304152 -0.26887,-7.005215 -3.99313,-6.580076 -2.50886,0.286397 -2.87402,0.727065 -2.75944,3.330076 0.0726,1.65 0.46261,4.0125 0.86663,5.25 0.70787,2.168164 0.51211,2.25 -5.38205,2.25 -5.3170002,0 -6.1166302,-0.245454 -6.1166302,-1.877555 0,-1.032656 0.675,-2.437756 1.5,-3.122445 0.825,-0.684689 1.5,-1.684281 1.5,-2.221316 0,-2.458193 3.3370402,-7.611219 5.5952502,-8.640127 3.94954,-1.799531 7.00174,-1.348549 10.43714,1.542153 2.865348,2.411029 3.280468,2.51163 4.126418,1 0.51731,-0.924391 1.93071,-1.682392 3.14088,-1.684448 1.21017,-0.0021 3.74768,-0.947056 5.63892,-2.1 8.1106,-4.944429 17.98742,-0.370578 18.03915,8.353738 0.0182,3.063828 0.38471,3.75 2.00319,3.75 1.26673,0 2.20203,0.880863 2.59414,2.443165 0.87934,3.503562 0.0945,4.19895 -5.48487,4.859743 -2.7325,0.323625 -8.48314,2.04578 -12.7792,3.82701 -6.63455,2.750813 -9.03555,4.473587 -15.941138,11.438119 -16.8356202,16.979324 -20.0618802,34.249974 -8.37112,44.811874 4.3565,3.93583 8.938278,5.17469 15.706908,4.24694 9.49037,-1.3008 14.29433,-6.72672 14.29433,-16.14499 0,-9.29866 -4.62761,-15.48186 -11.58689,-15.48186 -7.48198,0 -14.493518,7.88597 -12.287898,13.82036 1.30604,3.51399 5.112708,2.56986 6.331588,-1.57037 1.12328,-3.81549 1.4589,-3.90883 4.35464,-1.21104 2.967,2.76418 2.6728,4.98979 -1.04936,7.93831 -4.35087,3.44657 -9.868858,3.37049 -13.424418,-0.18507 -3.86868,-3.86867 -4.43772,-11.94699 -1.17673,-16.7052 4.86189,-7.094148 17.699388,-10.239548 25.515948,-6.251836 7.91921,4.040086 11.32312,11.110046 11.32312,23.518276 0,5.4281 -3.10012,11.85134 -7.6684,15.8884 -5.71186,5.04765 -23.064988,7.3667 -31.622278,4.22596 z M 31.644916,43.469641 c -1.95835,-1.958345 0.59165,-8.333333 3.33333,-8.333333 1.33858,0 4,2.994094 4,4.5 0,3.042421 -5.33532,5.831341 -7.33333,3.833333 z"
     id="path48"
     inkscape:connector-curvature="0"
     sodipodi:nodetypes="scsscsccsccsccssssscccccscssssssscssccsssssssss" />
</svg>
